<svg width="200" height="200" viewBox="0 0 200 200" fill="none" xmlns="http://www.w3.org/2000/svg">
  <circle cx="100" cy="100" r="90" fill="#22C55E" opacity="0.1"/>

  <!-- Left university building -->
  <rect x="40" y="80" width="35" height="60" rx="4" fill="#22C55E" opacity="0.4"/>
  <rect x="45" y="90" width="6" height="8" rx="1" fill="#22C55E" opacity="0.8"/>
  <rect x="54" y="90" width="6" height="8" rx="1" fill="#22C55E" opacity="0.8"/>
  <rect x="63" y="90" width="6" height="8" rx="1" fill="#22C55E" opacity="0.8"/>
  <rect x="45" y="105" width="6" height="8" rx="1" fill="#22C55E" opacity="0.8"/>
  <rect x="54" y="105" width="6" height="8" rx="1" fill="#22C55E" opacity="0.8"/>
  <rect x="63" y="105" width="6" height="8" rx="1" fill="#22C55E" opacity="0.8"/>
  <rect x="52" y="125" width="8" height="15" rx="1" fill="#22C55E"/>

  <!-- Right university building -->
  <rect x="125" y="70" width="35" height="70" rx="4" fill="#22C55E" opacity="0.6"/>
  <rect x="130" y="80" width="6" height="8" rx="1" fill="#22C55E"/>
  <rect x="139" y="80" width="6" height="8" rx="1" fill="#22C55E"/>
  <rect x="148" y="80" width="6" height="8" rx="1" fill="#22C55E"/>
  <rect x="130" y="95" width="6" height="8" rx="1" fill="#22C55E"/>
  <rect x="139" y="95" width="6" height="8" rx="1" fill="#22C55E"/>
  <rect x="148" y="95" width="6" height="8" rx="1" fill="#22C55E"/>
  <rect x="130" y="110" width="6" height="8" rx="1" fill="#22C55E"/>
  <rect x="139" y="110" width="6" height="8" rx="1" fill="#22C55E"/>
  <rect x="148" y="110" width="6" height="8" rx="1" fill="#22C55E"/>
  <rect x="137" y="125" width="8" height="15" rx="1" fill="#22C55E"/>

  <!-- Balance scale in center -->
  <rect x="98" y="55" width="4" height="30" rx="2" fill="#22C55E"/>
  <rect x="80" y="85" width="40" height="3" rx="1.5" fill="#22C55E"/>

  <!-- Scale pans -->
  <ellipse cx="85" cy="95" rx="8" ry="3" fill="#22C55E" opacity="0.7"/>
  <ellipse cx="115" cy="95" rx="8" ry="3" fill="#22C55E" opacity="0.7"/>
  <rect x="81" y="90" width="2" height="5" fill="#22C55E"/>
  <rect x="87" y="90" width="2" height="5" fill="#22C55E"/>
  <rect x="111" y="90" width="2" height="5" fill="#22C55E"/>
  <rect x="117" y="90" width="2" height="5" fill="#22C55E"/>

  <!-- VS text -->
  <text x="100" y="120" text-anchor="middle" font-family="Arial, sans-serif" font-size="14" font-weight="bold" fill="#22C55E">VS</text>
</svg>
